# xmcd
#
# Track frame offsets:
#	150
#	27555
#	47770
#	65447
#	81825
#	102810
#	120897
#	142560
#	171800
#	190990
#	202967
#
# Disc length: 3326 seconds
#
# Revision: 0
# Processed by: cddbd v1.5.1PL0 Copyright (c) Steve Scherf et al.
# Submitted via: dBpowerAMP V4.0
#
DISCID=880cfc0b
DTITLE=7 Karma Fishes - Alone
DYEAR=1996
DGENRE=AlternRock
TTITLE0=Home
TTITLE1=She
TTITLE2=Break The Silence
TTITLE3=White Rabbit
TTITLE4=Skin
TTITLE5=Molasses
TTITLE6=Child
TTITLE7=Time
TTITLE8=Garden
TTITLE9=Black Roses
TTITLE10=Serenity
EXTD=Kings of Koncord CA
EXTT0=
EXTT1=
EXTT2=
EXTT3=
EXTT4=
EXTT5=
EXTT6=
EXTT7=
EXTT8=
EXTT9=
EXTT10=
PLAYORDER=
